<svg
 xmlns="http://www.w3.org/2000/svg"
 xmlns:xlink="http://www.w3.org/1999/xlink"
 viewBox="0 0 742 542"
>
<path fill-rule="evenodd"  fill="currentColor"
 d="M702.618,292.654 C699.018,306.051 695.568,316.903 692.268,325.204 C688.968,333.501 685.068,339.904 680.568,344.404 C676.068,348.904 670.668,351.853 664.368,353.254 C658.068,354.651 650.118,355.354 640.518,355.354 L244.000,353.1000 L259.1000,324.000 C263.600,324.600 630.918,325.354 634.518,325.354 C642.116,325.354 647.568,323.353 650.868,319.354 C654.168,315.351 656.118,310.054 656.718,303.454 L611.418,142.054 L654.618,142.054 L678.618,253.654 L679.218,253.654 L700.218,142.054 L741.618,142.054 L702.618,292.654 ZM558.908,85.300 L600.935,85.300 L600.935,302.745 L558.908,302.745 L558.908,85.300 ZM533.631,174.836 C529.976,174.836 526.322,175.345 522.667,176.359 C519.012,177.377 515.662,179.052 512.617,181.384 C509.572,183.720 507.135,186.766 505.308,190.520 C503.481,194.279 502.567,198.895 502.567,204.377 L502.567,302.745 L460.540,302.745 L460.540,138.900 L500.740,138.900 L500.740,160.827 L501.349,160.827 C505.612,152.909 510.790,146.566 516.881,141.793 C522.972,137.025 530.381,134.636 539.112,134.636 C540.331,134.636 541.596,134.688 542.919,134.788 C544.237,134.893 545.508,135.045 546.726,135.245 L546.726,175.445 C544.490,175.245 542.310,175.093 540.178,174.988 C538.047,174.888 535.862,174.836 533.631,174.836 ZM400.087,294.370 C399.374,291.429 398.717,288.536 398.108,285.691 L397.499,285.691 C392.626,294.218 386.992,299.752 380.597,302.288 C374.201,304.825 365.926,306.095 355.776,306.095 C348.467,306.095 342.271,304.825 337.199,302.288 C332.121,299.752 328.062,296.250 325.017,291.782 C321.972,287.318 319.735,282.293 318.317,276.707 C316.894,271.125 316.185,265.591 316.185,260.109 C316.185,252.395 316.994,245.748 318.622,240.161 C320.244,234.579 322.733,229.807 326.083,225.847 C329.433,221.888 333.697,218.591 338.874,215.950 C344.051,213.314 350.294,210.977 357.603,208.945 L381.358,202.550 C387.649,200.927 392.017,198.695 394.453,195.850 C396.890,193.009 398.108,188.845 398.108,183.363 C398.108,177.073 396.633,172.148 393.692,168.593 C390.746,165.043 385.721,163.263 378.617,163.263 C372.117,163.263 367.244,165.195 363.999,169.050 C360.749,172.909 359.126,178.086 359.126,184.582 L359.126,189.150 L321.362,189.150 L321.362,185.191 C321.362,175.650 322.885,167.679 325.931,161.284 C328.976,154.888 333.087,149.711 338.265,145.752 C343.442,141.793 349.533,138.952 356.537,137.225 C363.542,135.502 371.003,134.636 378.922,134.636 C391.508,134.636 401.658,135.854 409.376,138.291 C417.090,140.727 423.081,144.182 427.344,148.645 C431.608,153.113 434.501,158.443 436.024,164.634 C437.547,170.829 438.308,177.577 438.308,184.886 L438.308,271.072 C438.308,278.791 438.660,284.777 439.374,289.041 C440.083,293.304 441.453,297.873 443.485,302.745 L403.285,302.745 C401.862,300.109 400.796,297.316 400.087,294.370 ZM398.108,220.822 C395.262,223.059 392.217,224.834 388.972,226.152 C385.721,227.475 382.776,228.436 380.140,229.045 C371.612,230.872 365.522,233.918 361.867,238.182 C358.212,242.445 356.385,248.232 356.385,255.541 C356.385,261.836 357.603,267.218 360.040,271.682 C362.476,276.150 366.535,278.382 372.222,278.382 C375.062,278.382 378.008,277.925 381.053,277.011 C384.099,276.098 386.887,274.627 389.428,272.595 C391.965,270.568 394.044,267.927 395.672,264.677 C397.294,261.432 398.108,257.573 398.108,253.104 L398.108,220.822 ZM259.235,189.759 C259.235,181.232 257.812,175.293 254.972,171.943 C252.126,168.593 247.558,166.918 241.267,166.918 C226.444,166.918 219.035,175.954 219.035,194.022 L219.035,302.745 L177.008,302.745 L177.008,85.300 L219.035,85.300 L219.035,155.650 L219.644,155.650 C227.762,141.641 241.062,134.636 259.540,134.636 C272.940,134.636 283.242,138.291 290.451,145.600 C297.655,152.909 301.262,164.786 301.262,181.232 L301.262,302.745 L259.235,302.745 L259.235,189.759 ZM148.000,150.000 C139.780,158.150 130.313,157.457 126.000,158.000 C116.586,159.185 112.789,134.954 98.000,126.000 C90.943,121.731 83.688,121.332 79.000,117.1000 C66.320,108.988 75.357,115.062 67.000,106.1000 C59.260,119.128 62.904,133.801 68.1000,141.1000 C79.028,155.494 112.000,176.1000 112.000,176.1000 C122.204,183.307 138.166,192.314 143.369,196.214 C148.567,200.114 152.716,204.314 155.819,208.814 C158.917,213.314 161.069,218.264 162.269,223.664 C163.469,229.064 164.069,235.064 164.069,241.664 C164.069,264.267 157.516,280.716 144.419,291.014 C131.317,301.317 119.047,306.464 83.669,306.464 C59.266,306.464 41.819,301.167 31.319,290.564 C20.819,279.966 15.569,264.764 15.569,244.964 L15.569,236.264 L58.769,236.264 L58.769,242.564 C58.769,247.566 59.167,252.117 59.969,256.214 C60.766,260.316 62.266,263.766 64.469,266.564 C66.667,269.367 69.616,271.566 73.319,273.164 C77.017,274.767 81.667,275.564 87.269,275.564 C104.820,275.564 105.817,273.417 111.119,269.114 C116.416,264.816 119.069,258.164 119.069,249.164 C119.069,244.364 118.417,240.216 117.119,236.714 C115.816,233.217 113.669,230.067 110.669,227.264 C107.669,224.466 103.717,221.916 98.819,219.614 L49.1000,187.000 C29.036,170.344 17.657,160.157 8.000,139.000 C-4.382,111.874 -0.076,84.855 12.1000,59.1000 C22.228,42.460 44.432,14.077 90.000,11.1000 C99.590,11.563 103.852,-2.652 130.1000,1.000 C139.293,2.115 114.725,26.386 120.1000,31.000 C143.374,50.482 134.753,73.335 139.000,80.000 C143.877,87.654 149.135,98.532 160.000,112.1000 C168.078,123.756 168.627,134.834 168.1000,134.000 C164.812,143.370 157.416,149.184 148.000,150.000 ZM119.1000,50.000 C116.719,47.168 112.788,46.733 112.000,46.1000 C111.212,47.267 112.288,51.666 114.000,55.000 C115.331,57.593 123.000,59.1000 123.000,59.1000 C123.000,59.1000 123.281,52.832 119.1000,50.000 ZM32.306,350.519 C37.406,340.722 44.756,333.072 54.356,327.569 C63.956,322.070 76.856,319.319 93.056,319.319 C108.455,319.319 120.605,321.822 129.506,326.819 C138.403,331.820 145.055,338.172 149.456,345.869 C153.853,353.570 156.605,361.872 157.706,370.769 C158.803,379.670 159.356,388.019 159.356,395.819 L116.156,395.819 C116.156,380.219 114.305,368.870 110.606,361.769 C106.903,354.672 100.153,351.119 90.356,351.119 C84.956,351.119 80.503,352.572 77.006,355.469 C73.505,358.370 70.753,363.072 68.756,369.569 C66.755,376.070 65.353,384.569 64.556,395.069 C63.755,405.569 63.356,418.422 63.356,433.619 C63.356,449.819 63.905,462.920 65.006,472.919 C66.103,482.922 67.805,490.670 70.106,496.169 C72.403,501.672 75.305,505.370 78.806,507.269 C82.303,509.172 86.353,510.119 90.956,510.119 C94.753,510.119 98.306,509.472 101.606,508.169 C104.906,506.870 107.756,504.269 110.156,500.369 C112.556,496.469 114.455,490.970 115.856,483.869 C117.253,476.772 117.956,467.420 117.956,455.819 L161.156,455.819 C161.156,467.420 160.256,478.422 158.456,488.819 C156.656,499.220 153.305,508.319 148.406,516.119 C143.503,523.919 136.603,530.022 127.706,534.419 C118.805,538.816 107.255,541.019 93.056,541.019 C76.856,541.019 63.956,538.417 54.356,533.219 C44.756,528.020 37.406,520.520 32.306,510.719 C27.206,500.922 23.906,489.222 22.406,475.619 C20.906,462.020 20.156,447.020 20.156,430.619 C20.156,414.419 20.906,399.470 22.406,385.769 C23.906,372.072 27.206,360.320 32.306,350.519 ZM218.456,392.819 L219.056,392.819 C227.053,379.019 240.155,372.119 258.356,372.119 C271.556,372.119 281.705,375.719 288.806,382.919 C295.903,390.119 299.456,401.819 299.456,418.019 L299.456,537.719 L258.056,537.719 L258.056,426.419 C258.056,418.019 256.655,412.169 253.856,408.869 C251.053,405.569 246.553,403.919 240.356,403.919 C225.755,403.919 218.456,412.820 218.456,430.619 L218.456,537.719 L177.056,537.719 L177.056,323.519 L218.456,323.519 L218.456,392.819 ZM324.806,397.619 C329.306,389.819 335.756,383.622 344.156,379.019 C352.556,374.420 363.755,372.119 377.756,372.119 C389.756,372.119 399.605,374.069 407.306,377.969 C415.003,381.869 421.055,387.372 425.456,394.469 C429.853,401.570 432.853,410.172 434.456,420.269 C436.055,430.370 436.856,441.620 436.856,454.019 L436.856,463.319 L354.956,463.319 L354.956,476.219 C354.956,481.019 355.303,485.669 356.006,490.169 C356.705,494.669 357.853,498.672 359.456,502.169 C361.055,505.670 363.155,508.469 365.756,510.569 C368.353,512.669 371.555,513.719 375.356,513.719 C382.355,513.719 387.455,511.220 390.656,506.219 C393.853,501.222 396.056,493.619 397.256,483.419 L434.456,483.419 C433.655,502.220 428.653,516.522 419.456,526.319 C410.255,536.120 395.756,541.019 375.956,541.019 C360.956,541.019 349.256,538.516 340.856,533.519 C332.456,528.522 326.255,521.922 322.256,513.719 C318.253,505.520 315.806,496.319 314.906,486.119 C314.006,475.919 313.556,465.719 313.556,455.519 C313.556,444.719 314.306,434.322 315.806,424.319 C317.306,414.320 320.306,405.419 324.806,397.619 ZM354.956,438.719 L397.256,438.719 C397.055,432.522 396.656,427.070 396.056,422.369 C395.456,417.672 394.406,413.669 392.906,410.369 C391.406,407.069 389.306,404.570 386.606,402.869 C383.906,401.172 380.456,400.319 376.256,400.319 C372.056,400.319 368.606,401.270 365.906,403.169 C363.206,405.072 361.055,407.570 359.456,410.669 C357.853,413.772 356.705,417.222 356.006,421.019 C355.303,424.820 354.956,428.622 354.956,432.419 L354.956,438.719 ZM481.256,490.319 C481.256,497.322 483.103,502.970 486.806,507.269 C490.505,511.572 495.853,513.719 502.856,513.719 C509.255,513.719 514.355,512.120 518.156,508.919 C521.953,505.722 523.856,500.922 523.856,494.519 C523.856,489.320 522.356,485.369 519.356,482.669 C516.356,479.969 512.855,477.822 508.856,476.219 L479.756,465.719 C468.356,461.720 459.755,456.072 453.956,448.769 C448.153,441.470 445.256,432.119 445.256,420.719 C445.256,414.119 446.353,407.870 448.556,401.969 C450.755,396.072 454.256,390.920 459.056,386.519 C463.856,382.122 470.006,378.620 477.506,376.019 C485.006,373.422 494.053,372.119 504.656,372.119 C523.453,372.119 537.356,376.122 546.356,384.119 C555.356,392.120 559.856,403.422 559.856,418.019 L559.856,424.619 L522.656,424.619 C522.656,416.219 521.306,410.069 518.606,406.169 C515.906,402.269 511.153,400.319 504.356,400.319 C499.153,400.319 494.606,401.772 490.706,404.669 C486.806,407.570 484.856,411.920 484.856,417.719 C484.856,421.722 486.103,425.322 488.606,428.519 C491.105,431.720 495.853,434.420 502.856,436.619 L527.756,445.019 C540.755,449.420 549.956,455.172 555.356,462.269 C560.756,469.370 563.456,479.022 563.456,491.219 C563.456,499.820 561.956,507.269 558.956,513.569 C555.956,519.869 551.803,525.119 546.506,529.319 C541.205,533.519 534.905,536.519 527.606,538.319 C520.303,540.119 512.255,541.019 503.456,541.019 C491.855,541.019 482.203,539.917 474.506,537.719 C466.805,535.520 460.706,532.220 456.206,527.819 C451.706,523.422 448.556,518.069 446.756,511.769 C444.956,505.469 444.056,498.419 444.056,490.619 L444.056,484.919 L481.256,484.919 L481.256,490.319 ZM606.956,490.319 C606.956,497.322 608.803,502.970 612.506,507.269 C616.205,511.572 621.553,513.719 628.556,513.719 C634.955,513.719 640.055,512.120 643.856,508.919 C647.653,505.722 649.556,500.922 649.556,494.519 C649.556,489.320 648.056,485.369 645.056,482.669 C642.056,479.969 638.555,477.822 634.556,476.219 L605.456,465.719 C594.056,461.720 585.455,456.072 579.656,448.769 C573.853,441.470 570.956,432.119 570.956,420.719 C570.956,414.119 572.053,407.870 574.256,401.969 C576.455,396.072 579.956,390.920 584.756,386.519 C589.556,382.122 595.706,378.620 603.206,376.019 C610.706,373.422 619.753,372.119 630.356,372.119 C649.153,372.119 663.056,376.122 672.056,384.119 C681.056,392.120 685.556,403.422 685.556,418.019 L685.556,424.619 L648.356,424.619 C648.356,416.219 647.006,410.069 644.306,406.169 C641.606,402.269 636.853,400.319 630.056,400.319 C624.853,400.319 620.306,401.772 616.406,404.669 C612.506,407.570 610.556,411.920 610.556,417.719 C610.556,421.722 611.803,425.322 614.306,428.519 C616.805,431.720 621.553,434.420 628.556,436.619 L653.456,445.019 C666.455,449.420 675.656,455.172 681.056,462.269 C686.456,469.370 689.156,479.022 689.156,491.219 C689.156,499.820 687.656,507.269 684.656,513.569 C681.656,519.869 677.503,525.119 672.206,529.319 C666.905,533.519 660.605,536.519 653.306,538.319 C646.003,540.119 637.955,541.019 629.156,541.019 C617.555,541.019 607.903,539.917 600.206,537.719 C592.505,535.520 586.406,532.220 581.906,527.819 C577.406,523.422 574.256,518.069 572.456,511.769 C570.656,505.469 569.756,498.419 569.756,490.619 L569.756,484.919 L606.956,484.919 L606.956,490.319 Z"/>
</svg>
